# xmcd
#
# Track frame offsets: 
#        150
#        30367
#        53707
#        72230
#        97407
#        172684
#        195502
#        243457
#        276057
#
# Disc length: 3735 seconds
#
# Revision: 0
# Processed by: cddbd v1.5.2PL0 Copyright (c) Steve Scherf et al.
# Submitted via: ExactAudioCopy v0.99pb1
#
DISCID=730e9509
DTITLE=Cream - Moon Beams CD1
DYEAR=1968
DGENRE=Blues
TTITLE0=White Room
TTITLE1=Politician
TTITLE2=Crossroads
TTITLE3=Sunshine Of Your Love
TTITLE4=Spoonful
TTITLE5=Deserted Cities Of The Heart
TTITLE6=Passing The Time - Drum Solo
TTITLE7=I'm So Glad
TTITLE8=Radio Spot 'Live Cream Volume II'
EXTD=
EXTT0=
EXTT1=
EXTT2=
EXTT3=
EXTT4=
EXTT5=
EXTT6=
EXTT7=
EXTT8=
PLAYORDER=
